<svg xmlns="http://www.w3.org/2000/svg" width="311.5" height="58.625" viewBox="0 0 311.5 58.625">
  <defs>
    <style>
      .cls-1 {
        fill: #4c5c68;
      }

      .cls-1, .cls-2 {
        fill-rule: evenodd;
      }

      .cls-2 {
        fill: #1985a1;
      }
    </style>
  </defs>
  <path id="BUG" class="cls-1" d="M27.216,20.528a9,9,0,0,0-4.632-3,7.69,7.69,0,0,0,3.672-3.288A9.241,9.241,0,0,0,27.48,9.656a9.518,9.518,0,0,0-.552-3.192,9.141,9.141,0,0,0-1.56-2.784A8.033,8.033,0,0,0,22.92,1.688,6.732,6.732,0,0,0,19.7.92H-0.072V35H16.68a21.422,21.422,0,0,0,4.728-.5,12.439,12.439,0,0,0,3.912-1.56,7.446,7.446,0,0,0,3.6-6.672A8.943,8.943,0,0,0,27.216,20.528Zm-8.592,5.88a2.784,2.784,0,0,1-1.944.72H9.288V21.416h7.728a2.117,2.117,0,0,1,1.728.84,3.239,3.239,0,0,1,.672,2.088A2.647,2.647,0,0,1,18.624,26.408ZM15.96,8.888a2.3,2.3,0,0,1,1.584.6,2.559,2.559,0,0,1,.672,1.992,2.376,2.376,0,0,1-.792,2.112,3.088,3.088,0,0,1-1.752.528H9.288V8.888H15.96Zm31.607,17.4a5.579,5.579,0,0,1-1.848-1.872,8.7,8.7,0,0,1-1.056-2.736,15.321,15.321,0,0,1-.336-3.24V0.92h-9.36V18.44a23.564,23.564,0,0,0,.864,6.456,14.76,14.76,0,0,0,2.736,5.352,13.4,13.4,0,0,0,4.776,3.672,16.277,16.277,0,0,0,6.984,1.368,16.672,16.672,0,0,0,6.84-1.3,13.393,13.393,0,0,0,4.824-3.552,14.443,14.443,0,0,0,2.832-5.352,23.44,23.44,0,0,0,.912-6.648V0.92h-9.36V18.44a15.04,15.04,0,0,1-.336,3.216,8.722,8.722,0,0,1-1.056,2.712,5.728,5.728,0,0,1-1.872,1.9A5.781,5.781,0,0,1,47.567,26.288ZM96.647,35h7.728V16.856H90.359v6.72h5.9a9.569,9.569,0,0,1-7.2,3.36,7.75,7.75,0,0,1-3.216-.648,7.149,7.149,0,0,1-2.472-1.824,8.47,8.47,0,0,1-1.608-2.808,10.905,10.905,0,0,1-.576-3.648,10.966,10.966,0,0,1,.576-3.624,8.973,8.973,0,0,1,1.584-2.856,7.188,7.188,0,0,1,2.4-1.872,6.974,6.974,0,0,1,3.072-.672A8.1,8.1,0,0,1,93.1,10.208a7.847,7.847,0,0,1,3.024,3.24l6.96-5.328a11.923,11.923,0,0,0-2.352-3.1,15.414,15.414,0,0,0-3.24-2.352,15.742,15.742,0,0,0-3.912-1.488,18.968,18.968,0,0,0-4.416-.5A17.848,17.848,0,0,0,82.271,2a17.464,17.464,0,0,0-5.544,3.6,16.631,16.631,0,0,0-5.04,12.072,19.4,19.4,0,0,0,1.344,7.44,16.649,16.649,0,0,0,3.6,5.52,15.129,15.129,0,0,0,5.28,3.432,17.317,17.317,0,0,0,6.336,1.176,12.66,12.66,0,0,0,8.4-3.072V35Z" transform="translate(0 -0.688)"/>
  <path id="TRACKR" class="cls-2" d="M137.351,0.92H108.359V9.08h9.84V35h9.36V9.08h9.792V0.92ZM152.519,35V24.536h3.5l6,10.464h10.56l-7.2-12.528a11.3,11.3,0,0,0,3.6-4.2,12.128,12.128,0,0,0,1.3-5.544,11.376,11.376,0,0,0-.864-4.3,12.56,12.56,0,0,0-2.376-3.792,11.969,11.969,0,0,0-3.624-2.688A10.357,10.357,0,0,0,158.807.92H143.159V35h9.36Zm0-25.92h5.664a2.422,2.422,0,0,1,1.728.936,3.861,3.861,0,0,1,.864,2.712,4.3,4.3,0,0,1-.744,2.688,2.07,2.07,0,0,1-1.608.96h-5.9V9.08ZM174.935,35h9.552l2.016-6.672h9.072L197.639,35h9.5L195.335,0.92h-8.544ZM187.9,22.088l3.168-10.56,3.024,10.56H187.9ZM210.359,24.1a18.193,18.193,0,0,0,3.528,5.664,17.562,17.562,0,0,0,5.424,4.008,15.787,15.787,0,0,0,6.936,1.512,19.675,19.675,0,0,0,4.44-.528,18.856,18.856,0,0,0,4.272-1.536,14.811,14.811,0,0,0,3.552-2.5,9.735,9.735,0,0,0,2.328-3.36l-7.632-4.56a5.761,5.761,0,0,1-1.176,1.944,6.579,6.579,0,0,1-1.68,1.3,7.318,7.318,0,0,1-1.944.72,9.386,9.386,0,0,1-1.968.216,7.141,7.141,0,0,1-3.288-.744,7.491,7.491,0,0,1-2.472-1.992,8.864,8.864,0,0,1-1.536-2.88,10.969,10.969,0,0,1-.528-3.408,11.621,11.621,0,0,1,.456-3.192,8.9,8.9,0,0,1,1.392-2.88,6.991,6.991,0,0,1,5.88-2.856,10.949,10.949,0,0,1,1.992.192,7.556,7.556,0,0,1,1.992.672,6.488,6.488,0,0,1,1.752,1.3,6.044,6.044,0,0,1,1.272,2.064L240.5,8.168a13.308,13.308,0,0,0-5.4-5.4,18.946,18.946,0,0,0-15.912-.552A17.479,17.479,0,0,0,213.719,6.1a17,17,0,0,0-4.608,11.568A17.393,17.393,0,0,0,210.359,24.1ZM255.91,35V25.16l2.592-2.688L266.95,35H277.7L264.454,16.184,276.838,0.92h-10.56L255.91,13.88V0.92h-9.36V35h9.36Zm35.52,0V24.536h3.5l6,10.464h10.56l-7.2-12.528a11.3,11.3,0,0,0,3.6-4.2,12.128,12.128,0,0,0,1.3-5.544,11.376,11.376,0,0,0-.864-4.3A12.56,12.56,0,0,0,305.95,4.64a11.982,11.982,0,0,0-3.624-2.688A10.363,10.363,0,0,0,297.718.92H282.07V35h9.36Zm0-25.92h5.664a2.422,2.422,0,0,1,1.728.936,3.861,3.861,0,0,1,.864,2.712,4.3,4.3,0,0,1-.744,2.688,2.071,2.071,0,0,1-1.608.96h-5.9V9.08Z" transform="translate(0 -0.688)"/>
  <path id="Professional" class="cls-1" d="M1.506,59.156V52.724H7.434A4.335,4.335,0,0,0,9.4,52.28a4.815,4.815,0,0,0,1.524-1.188,5.463,5.463,0,0,0,.984-1.7,5.806,5.806,0,0,0,.348-1.992,5.192,5.192,0,0,0-.372-1.908,5.792,5.792,0,0,0-1.032-1.7,5.089,5.089,0,0,0-1.572-1.212,4.4,4.4,0,0,0-1.992-.456H0.282v17.04H1.506Zm0-15.936H7.242a3.254,3.254,0,0,1,1.452.336,3.924,3.924,0,0,1,1.2.912A4.427,4.427,0,0,1,10.71,45.8a4.29,4.29,0,0,1,.3,1.6,4.937,4.937,0,0,1-.252,1.572,4.34,4.34,0,0,1-.72,1.344,3.489,3.489,0,0,1-1.14.936,3.237,3.237,0,0,1-1.512.348H1.506V43.22ZM17.322,59.156V52.724h5.52l4.128,6.432h1.416l-4.248-6.624a4.454,4.454,0,0,0,1.632-.6,4.6,4.6,0,0,0,1.272-1.152,5.335,5.335,0,0,0,.816-1.572,5.764,5.764,0,0,0,.288-1.812,5.192,5.192,0,0,0-.372-1.908,5.79,5.79,0,0,0-1.032-1.7,5.088,5.088,0,0,0-1.572-1.212,4.4,4.4,0,0,0-1.992-.456H16.1v17.04h1.224Zm0-15.936H23.13a3.212,3.212,0,0,1,1.476.348,4.092,4.092,0,0,1,1.2.924,4.425,4.425,0,0,1,.816,1.332,4.227,4.227,0,0,1,.3,1.572,4.864,4.864,0,0,1-.252,1.548,4.208,4.208,0,0,1-.732,1.344,3.772,3.772,0,0,1-1.152.948,3.1,3.1,0,0,1-1.488.36H17.322V43.22ZM42.906,58.568a8.126,8.126,0,0,0,2.532-1.9A9,9,0,0,0,47.154,47.5a9.152,9.152,0,0,0-1.62-2.772,8.167,8.167,0,0,0-2.52-1.98A7.028,7.028,0,0,0,39.762,42a7.182,7.182,0,0,0-3.168.708,8.042,8.042,0,0,0-2.532,1.908,9.127,9.127,0,0,0-1.68,2.76,8.86,8.86,0,0,0-.612,3.264,9.145,9.145,0,0,0,.576,3.192,8.682,8.682,0,0,0,1.632,2.76,8.363,8.363,0,0,0,2.52,1.944,7.043,7.043,0,0,0,3.24.744A7.178,7.178,0,0,0,42.906,58.568ZM33.474,47.9a7.891,7.891,0,0,1,1.368-2.412,6.858,6.858,0,0,1,2.136-1.716,5.949,5.949,0,0,1,2.784-.648,5.835,5.835,0,0,1,2.688.624,6.946,6.946,0,0,1,2.124,1.668,7.806,7.806,0,0,1,1.4,2.4,8.18,8.18,0,0,1-1.332,7.968A6.767,6.767,0,0,1,42.534,57.5a5.88,5.88,0,0,1-2.772.648,6.026,6.026,0,0,1-2.736-.624,6.847,6.847,0,0,1-2.148-1.668,7.609,7.609,0,0,1-1.392-2.4,8.2,8.2,0,0,1-.492-2.82A8.075,8.075,0,0,1,33.474,47.9ZM53.106,59.156V51.044h8.376V49.988H53.106V43.22H62.97v-1.1H51.882v17.04h1.224Zm15.816-1.1v-7.08h8.664V49.916H68.922v-6.7h9.912v-1.1H67.7v17.04H79.05v-1.1H68.922ZM93.69,43.988a6.972,6.972,0,0,0-2.352-1.5A8.282,8.282,0,0,0,88.386,42a9,9,0,0,0-2.448.312,5.52,5.52,0,0,0-1.9.924,4.31,4.31,0,0,0-1.236,1.5,4.5,4.5,0,0,0-.444,2.04,3.792,3.792,0,0,0,.36,1.752,3.271,3.271,0,0,0,1.068,1.188,6.355,6.355,0,0,0,1.752.816q1.044,0.324,2.412.612,1.344,0.288,2.352.6a6.642,6.642,0,0,1,1.668.744,3.024,3.024,0,0,1,1,1.02,2.838,2.838,0,0,1,.336,1.428,2.745,2.745,0,0,1-1.26,2.472,6.387,6.387,0,0,1-3.492.816,8.906,8.906,0,0,1-3.5-.66,7.811,7.811,0,0,1-2.64-1.788l-0.648.984A9.585,9.585,0,0,0,88.506,59.3a9.943,9.943,0,0,0,2.484-.288,5.859,5.859,0,0,0,1.92-.852,3.954,3.954,0,0,0,1.248-1.4,4.153,4.153,0,0,0,.444-1.968,3.912,3.912,0,0,0-.42-1.9,3.709,3.709,0,0,0-1.2-1.3,7.2,7.2,0,0,0-1.9-.876q-1.116-.348-2.484-0.636-1.32-.288-2.256-0.552a5.954,5.954,0,0,1-1.548-.648,2.476,2.476,0,0,1-.9-0.924A2.86,2.86,0,0,1,83.61,46.6a3.152,3.152,0,0,1,1.14-2.556,5.655,5.655,0,0,1,3.636-.948,5.959,5.959,0,0,1,4.68,1.848Zm15.817,0a6.98,6.98,0,0,0-2.352-1.5A8.282,8.282,0,0,0,104.2,42a8.99,8.99,0,0,0-2.448.312,5.519,5.519,0,0,0-1.9.924,4.31,4.31,0,0,0-1.236,1.5,4.5,4.5,0,0,0-.444,2.04,3.792,3.792,0,0,0,.36,1.752,3.271,3.271,0,0,0,1.068,1.188,6.354,6.354,0,0,0,1.752.816q1.044,0.324,2.412.612,1.343,0.288,2.352.6a6.655,6.655,0,0,1,1.668.744,3.04,3.04,0,0,1,1,1.02,2.847,2.847,0,0,1,.336,1.428,2.745,2.745,0,0,1-1.26,2.472,6.387,6.387,0,0,1-3.492.816,8.9,8.9,0,0,1-3.5-.66,7.808,7.808,0,0,1-2.641-1.788l-0.648.984a9.584,9.584,0,0,0,6.745,2.544,9.943,9.943,0,0,0,2.484-.288,5.867,5.867,0,0,0,1.92-.852,3.97,3.97,0,0,0,1.248-1.4,4.163,4.163,0,0,0,.444-1.968,3.921,3.921,0,0,0-.42-1.9,3.725,3.725,0,0,0-1.2-1.3,7.214,7.214,0,0,0-1.9-.876q-1.116-.348-2.484-0.636-1.322-.288-2.256-0.552a5.954,5.954,0,0,1-1.548-.648,2.477,2.477,0,0,1-.9-0.924,2.86,2.86,0,0,1-.288-1.356,3.151,3.151,0,0,1,1.141-2.556A5.652,5.652,0,0,1,104.2,43.1a5.959,5.959,0,0,1,4.68,1.848Zm6.5,15.168V42.116h-1.224v17.04h1.224Zm15.144-.588a8.145,8.145,0,0,0,2.532-1.9A9,9,0,0,0,135.4,47.5a9.152,9.152,0,0,0-1.62-2.772,8.167,8.167,0,0,0-2.52-1.98A7.031,7.031,0,0,0,128.01,42a7.178,7.178,0,0,0-3.168.708,8.024,8.024,0,0,0-2.532,1.908,9.109,9.109,0,0,0-1.68,2.76,8.86,8.86,0,0,0-.612,3.264,9.145,9.145,0,0,0,.576,3.192,8.669,8.669,0,0,0,1.632,2.76,8.341,8.341,0,0,0,2.52,1.944,7.039,7.039,0,0,0,3.24.744A7.184,7.184,0,0,0,131.154,58.568ZM121.722,47.9a7.854,7.854,0,0,1,1.368-2.412,6.839,6.839,0,0,1,2.136-1.716,5.944,5.944,0,0,1,2.784-.648,5.837,5.837,0,0,1,2.688.624,6.946,6.946,0,0,1,2.124,1.668,7.806,7.806,0,0,1,1.4,2.4,8.18,8.18,0,0,1-1.332,7.968,6.785,6.785,0,0,1-2.112,1.716,5.884,5.884,0,0,1-2.772.648,6.021,6.021,0,0,1-2.736-.624,6.837,6.837,0,0,1-2.148-1.668,7.6,7.6,0,0,1-1.392-2.4,8.179,8.179,0,0,1-.492-2.82A8.058,8.058,0,0,1,121.722,47.9Zm31.392,11.256h1.128V42.116h-1.224v15l-11.952-15H140.13v17.04h1.224V44.42Zm5.112,0h1.32l2.376-5.616h8.136l2.376,5.616h1.3l-7.2-17.04h-1.056Zm3.984-6.624L166,43.6l3.72,8.928H162.21Zm27.216,6.624v-1.1H179.25V42.116h-1.224v17.04h11.4Z" transform="translate(0 -0.688)"/>
</svg>
